<svg xmlns="http://www.w3.org/2000/svg" xmlns:xlink="http://www.w3.org/1999/xlink" version="1.1" width="256" height="256" viewBox="0 0 256 256" xml:space="preserve">
<desc>Created with Fabric.js 1.7.22</desc>
<defs>
</defs>
<g transform="translate(128 128) scale(0.72 0.72)" style="">
	<g style="stroke: none; stroke-width: 0; stroke-dasharray: none; stroke-linecap: butt; stroke-linejoin: miter; stroke-miterlimit: 10; fill: none; fill-rule: nonzero; opacity: 1;" transform="translate(-175.05 -175.05000000000004) scale(3.89 3.89)" >
	<path d="M 45 77.341 h 27.675 c 3.754 0 6.797 -3.328 6.797 -7.434 v 0 c 0 -2.053 -0.761 -3.911 -1.991 -5.257 c -8.045 -9.28 -10.689 -19.481 -11.283 -31.252 v 0 v 0 c 0 -12.805 -9.491 -23.186 -21.198 -23.186 S 23.802 20.593 23.802 33.398 v 0 l 0 0 C 23.208 45.169 20.564 55.37 12.519 64.65 c -1.23 1.345 -1.991 3.204 -1.991 5.257 v 0 c 0 4.106 3.043 7.434 6.797 7.434 H 45 z" style="stroke: none; stroke-width: 1; stroke-dasharray: none; stroke-linecap: butt; stroke-linejoin: miter; stroke-miterlimit: 10; fill: rgb(251,188,4); fill-rule: nonzero; opacity: 1;" transform=" matrix(1 0 0 1 0 0) " stroke-linecap="round" />
	<path d="M 77.481 64.65 c -8.045 -9.28 -10.689 -19.481 -11.283 -31.252 c 0 -12.805 -9.491 -23.186 -21.198 -23.186 c -1.123 0 -2.225 0.097 -3.3 0.281 c 6.736 4.441 11.243 12.519 11.243 21.75 c 0.651 12.884 3.544 24.049 12.35 34.207 c 1.346 1.473 2.179 3.507 2.179 5.754 c 0 1.949 -0.628 3.736 -1.672 5.137 h 6.875 c 3.754 0 6.797 -3.328 6.797 -7.434 C 79.471 67.854 78.711 65.995 77.481 64.65 z" style="stroke: none; stroke-width: 1; stroke-dasharray: none; stroke-linecap: butt; stroke-linejoin: miter; stroke-miterlimit: 10; fill: rgb(227,162,6); fill-rule: nonzero; opacity: 1;" transform=" matrix(1 0 0 1 0 0) " stroke-linecap="round" />
	<path d="M 56.659 77.341 C 56.659 83.78 51.439 89 45 89 s -11.659 -5.22 -11.659 -11.659 H 56.659 z" style="stroke: none; stroke-width: 1; stroke-dasharray: none; stroke-linecap: butt; stroke-linejoin: miter; stroke-miterlimit: 10; fill: rgb(251,188,4); fill-rule: nonzero; opacity: 1;" transform=" matrix(1 0 0 1 0 0) " stroke-linecap="round" />
	<path d="M 49.225 77.341 c -0.842 4.826 -3.975 8.853 -8.242 10.934 C 42.237 88.736 43.586 89 45 89 c 6.439 0 11.659 -5.22 11.659 -11.659 H 49.225 z" style="stroke: none; stroke-width: 1; stroke-dasharray: none; stroke-linecap: butt; stroke-linejoin: miter; stroke-miterlimit: 10; fill: rgb(227,162,6); fill-rule: nonzero; opacity: 1;" transform=" matrix(1 0 0 1 0 0) " stroke-linecap="round" />
	<path d="M 72.675 78.341 h -55.35 c -4.299 0 -7.796 -3.783 -7.796 -8.434 c 0 -2.237 0.8 -4.344 2.253 -5.932 c 7.047 -8.132 10.349 -17.297 11.022 -30.627 C 22.802 20.062 32.76 9.212 45 9.212 c 12.239 0 22.197 10.85 22.197 24.186 c 0.672 13.281 3.974 22.446 11.039 30.597 c 1.436 1.568 2.235 3.675 2.235 5.911 C 80.472 74.557 76.974 78.341 72.675 78.341 z M 45 11.212 c -11.137 0 -20.198 9.953 -20.198 22.186 c -0.689 13.68 -4.244 23.504 -11.527 31.907 c -1.133 1.238 -1.747 2.865 -1.747 4.601 c 0 3.548 2.6 6.435 5.796 6.435 h 55.35 c 3.196 0 5.797 -2.886 5.797 -6.434 c 0 -1.736 -0.614 -3.363 -1.729 -4.582 c -7.301 -8.422 -10.856 -18.247 -11.545 -31.876 C 65.197 21.165 56.137 11.212 45 11.212 z" style="stroke: none; stroke-width: 1; stroke-dasharray: none; stroke-linecap: butt; stroke-linejoin: miter; stroke-miterlimit: 10; fill: rgb(0,0,0); fill-rule: nonzero; opacity: 1;" transform=" matrix(1 0 0 1 0 0) " stroke-linecap="round" />
	<path d="M 45 90 c -6.98 0 -12.659 -5.679 -12.659 -12.659 v -1 h 25.318 v 1 C 57.659 84.321 51.98 90 45 90 z M 34.387 78.341 C 34.893 83.751 39.46 88 45 88 s 10.106 -4.249 10.612 -9.659 H 34.387 z" style="stroke: none; stroke-width: 1; stroke-dasharray: none; stroke-linecap: butt; stroke-linejoin: miter; stroke-miterlimit: 10; fill: rgb(0,0,0); fill-rule: nonzero; opacity: 1;" transform=" matrix(1 0 0 1 0 0) " stroke-linecap="round" />
	<circle cx="60.608000000000004" cy="19.858" r="18.858" style="stroke: none; stroke-width: 1; stroke-dasharray: none; stroke-linecap: butt; stroke-linejoin: miter; stroke-miterlimit: 10; fill: rgb(101,191,31); fill-rule: nonzero; opacity: 1;" transform="  matrix(1 0 0 1 0 0) "/>
	<path d="M 60.613 1 c -0.191 0 -0.375 0.023 -0.565 0.029 c 5.721 4.291 9.423 11.128 9.423 18.83 c 0 7.702 -3.702 14.539 -9.423 18.83 c 0.189 0.006 0.374 0.029 0.565 0.029 c 10.415 0 18.858 -8.443 18.858 -18.858 S 71.028 1 60.613 1 z" style="stroke: none; stroke-width: 1; stroke-dasharray: none; stroke-linecap: butt; stroke-linejoin: miter; stroke-miterlimit: 10; fill: rgb(79,162,14); fill-rule: nonzero; opacity: 1;" transform=" matrix(1 0 0 1 0 0) " stroke-linecap="round" />
	<path d="M 60.613 39.716 c -10.95 0 -19.858 -8.908 -19.858 -19.858 C 40.755 8.908 49.663 0 60.613 0 s 19.858 8.908 19.858 19.858 C 80.472 30.808 71.563 39.716 60.613 39.716 z M 60.613 2 c -9.847 0 -17.858 8.011 -17.858 17.858 c 0 9.847 8.012 17.858 17.858 17.858 s 17.858 -8.011 17.858 -17.858 C 78.472 10.011 70.46 2 60.613 2 z" style="stroke: none; stroke-width: 1; stroke-dasharray: none; stroke-linecap: butt; stroke-linejoin: miter; stroke-miterlimit: 10; fill: rgb(0,0,0); fill-rule: nonzero; opacity: 1;" transform=" matrix(1 0 0 1 0 0) " stroke-linecap="round" />
	<path d="M 57.26 28.528 c -0.002 0 -0.004 0 -0.007 0 c -0.288 -0.002 -0.563 -0.128 -0.751 -0.348 l -6.609 -7.676 c -0.36 -0.418 -0.313 -1.05 0.105 -1.41 c 0.416 -0.36 1.048 -0.315 1.41 0.105 l 5.861 6.807 l 12.247 -13.853 c 0.365 -0.413 0.998 -0.453 1.411 -0.087 c 0.414 0.366 0.453 0.998 0.087 1.411 L 58.009 28.19 C 57.819 28.405 57.546 28.528 57.26 28.528 z" style="stroke: none; stroke-width: 1; stroke-dasharray: none; stroke-linecap: butt; stroke-linejoin: miter; stroke-miterlimit: 10; fill: rgb(0,0,0); fill-rule: nonzero; opacity: 1;" transform=" matrix(1 0 0 1 0 0) " stroke-linecap="round" />
</g>
</g>
</svg>