<svg xmlns="http://www.w3.org/2000/svg" xmlns:xlink="http://www.w3.org/1999/xlink" version="1.1" width="256" height="256" viewBox="0 0 256 256" xml:space="preserve">
<desc>Created with Fabric.js 1.7.22</desc>
<defs>
</defs>
<g transform="translate(128 128) scale(0.72 0.72)" style="">
	<g style="stroke: none; stroke-width: 0; stroke-dasharray: none; stroke-linecap: butt; stroke-linejoin: miter; stroke-miterlimit: 10; fill: none; fill-rule: nonzero; opacity: 1;" transform="translate(-175.05 -175.05000000000004) scale(3.89 3.89)" >
	<path d="M 45 90 c 15.245 -18.648 30.489 -42.672 30.489 -59.511 S 61.839 0 45 0 S 14.511 13.65 14.511 30.489 S 29.755 71.352 45 90 z" style="stroke: none; stroke-width: 1; stroke-dasharray: none; stroke-linecap: butt; stroke-linejoin: miter; stroke-miterlimit: 10; fill: rgb(64,89,107); fill-rule: nonzero; opacity: 1;" transform=" matrix(1 0 0 1 0 0) " stroke-linecap="round" />
	<path d="M 66.266 27.255 c 0.174 1.102 0.264 2.232 0.264 3.383 c 0 11.891 -9.639 21.53 -21.53 21.53 s -21.53 -9.639 -21.53 -21.53 c 0 -1.152 0.09 -2.282 0.265 -3.385 C 37.912 18.24 52.089 18.241 66.266 27.255 z" style="stroke: none; stroke-width: 1; stroke-dasharray: none; stroke-linecap: butt; stroke-linejoin: miter; stroke-miterlimit: 10; fill: rgb(242,242,242); fill-rule: nonzero; opacity: 1;" transform=" matrix(1 0 0 1 0 0) " stroke-linecap="round" />
	<path d="M 28.619 29.529 h -0.546 c -2.915 0 -5.278 -2.363 -5.278 -5.278 v -2.033 c 3.701 -1.575 7.402 -1.575 11.102 0 v 2.033 C 33.898 27.166 31.534 29.529 28.619 29.529 z" style="stroke: none; stroke-width: 1; stroke-dasharray: none; stroke-linecap: butt; stroke-linejoin: miter; stroke-miterlimit: 10; fill: rgb(231,78,58); fill-rule: nonzero; opacity: 1;" transform=" matrix(1 0 0 1 0 0) " stroke-linecap="round" />
	<path d="M 39.722 29.529 h -0.546 c -2.915 0 -5.278 -2.363 -5.278 -5.278 v -2.033 c 3.701 -1.079 7.402 -1.079 11.102 0 v 2.033 C 45 27.166 42.637 29.529 39.722 29.529 z" style="stroke: none; stroke-width: 1; stroke-dasharray: none; stroke-linecap: butt; stroke-linejoin: miter; stroke-miterlimit: 10; fill: rgb(176,182,188); fill-rule: nonzero; opacity: 1;" transform=" matrix(1 0 0 1 0 0) " stroke-linecap="round" />
	<path d="M 61.381 29.529 h 0.546 c 2.915 0 5.278 -2.363 5.278 -5.278 v -2.033 c -3.701 -1.079 -7.402 -1.079 -11.102 0 v 2.033 C 56.102 27.166 58.466 29.529 61.381 29.529 z" style="stroke: none; stroke-width: 1; stroke-dasharray: none; stroke-linecap: butt; stroke-linejoin: miter; stroke-miterlimit: 10; fill: rgb(176,182,188); fill-rule: nonzero; opacity: 1;" transform=" matrix(1 0 0 1 0 0) " stroke-linecap="round" />
	<path d="M 50.278 29.529 h 0.546 c 2.915 0 5.278 -2.363 5.278 -5.278 v -2.033 c -3.701 -1.079 -7.402 -1.079 -11.102 0 v 2.033 C 45 27.166 47.363 29.529 50.278 29.529 z" style="stroke: none; stroke-width: 1; stroke-dasharray: none; stroke-linecap: butt; stroke-linejoin: miter; stroke-miterlimit: 10; fill: rgb(231,78,58); fill-rule: nonzero; opacity: 1;" transform=" matrix(1 0 0 1 0 0) " stroke-linecap="round" />
	<path d="M 22.795 22.217 l 6.376 -7.757 c 0.412 -0.502 1.027 -0.792 1.677 -0.792 h 6.273 c 1.074 2.85 0 5.7 -3.223 8.55 L 22.795 22.217 z" style="stroke: none; stroke-width: 1; stroke-dasharray: none; stroke-linecap: butt; stroke-linejoin: miter; stroke-miterlimit: 10; fill: rgb(255,112,88); fill-rule: nonzero; opacity: 1;" transform=" matrix(1 0 0 1 0 0) " stroke-linecap="round" />
	<path d="M 45 22.217 c -1.445 -2.85 -1.445 -5.7 0 -8.55 h 7.88 c 2.164 2.85 3.238 5.7 3.223 8.55 H 45 z" style="stroke: none; stroke-width: 1; stroke-dasharray: none; stroke-linecap: butt; stroke-linejoin: miter; stroke-miterlimit: 10; fill: rgb(255,112,88); fill-rule: nonzero; opacity: 1;" transform=" matrix(1 0 0 1 0 0) " stroke-linecap="round" />
	<polygon points="45,22.22 45,13.67 37.12,13.67 33.9,22.22 " style="stroke: none; stroke-width: 1; stroke-dasharray: none; stroke-linecap: butt; stroke-linejoin: miter; stroke-miterlimit: 10; fill: rgb(214,224,235); fill-rule: nonzero; opacity: 1;" transform="  matrix(1 0 0 1 0 0) "/>
	<path d="M 67.205 22.217 l -6.376 -7.757 c -0.412 -0.502 -1.027 -0.792 -1.677 -0.792 H 52.88 l 3.223 8.55 H 67.205 z" style="stroke: none; stroke-width: 1; stroke-dasharray: none; stroke-linecap: butt; stroke-linejoin: miter; stroke-miterlimit: 10; fill: rgb(214,224,235); fill-rule: nonzero; opacity: 1;" transform=" matrix(1 0 0 1 0 0) " stroke-linecap="round" />
</g>
</g>
</svg>